# xmcd
#
# Track frame offsets:
#	150
#	19624
#	32761
#	52500
#	71154
#	90723
#	106929
#	119789
#	135428
#	151988
#	170390
#	187233
#	205431
#	222531
#	233416
#
# Disc length: 3358 seconds
#
# Revision: 1
# Processed by: cddbd v1.4PL0 Copyright (c) Steve Scherf et al.
# Submitted via: audiograbber 1.80
#
DISCID=cf0d1c0f
DTITLE=Jon Tiven Group - Blüe Guru
DYEAR=1900
DGENRE=
TTITLE0=He Don't Know
TTITLE1=Blüe Guru
TTITLE2=Second Hand Paradise
TTITLE3=Midnight Again
TTITLE4=River Of No Return
TTITLE5=Let's Think About It
TTITLE6=Inside Information
TTITLE7=Tricks Of The Trade
TTITLE8=Fool's Gold
TTITLE9=Laugh
TTITLE10=I Smell Smoke
TTITLE11=Had To Have It
TTITLE12=Better Him Than Me
TTITLE13=The Beginning Of The Blues
TTITLE14=The End Of The Blües
EXTD=
EXTT0=
EXTT1=
EXTT2=
EXTT3=
EXTT4=
EXTT5=
EXTT6=
EXTT7=
EXTT8=
EXTT9=
EXTT10=
EXTT11=
EXTT12=
EXTT13=
EXTT14=
PLAYORDER=
